<?xml version="1.0" encoding="UTF-8" standalone="no"?>
<svg width="120" height="36" viewBox="0 0 120 36" fill="none" xmlns="http://www.w3.org/2000/svg">
  <!-- Gradients -->
  <defs>
    <linearGradient id="primaryGradient" x1="0%" y1="0%" x2="100%" y2="100%">
      <stop offset="0%" stop-color="#3563E9" />
      <stop offset="100%" stop-color="#6C5CE7" />
    </linearGradient>
    <linearGradient id="secondaryGradient" x1="0%" y1="0%" x2="100%" y2="0%">
      <stop offset="0%" stop-color="#6C5CE7" />
      <stop offset="100%" stop-color="#3563E9" />
    </linearGradient>
    <filter id="shadow" x="-20%" y="-20%" width="140%" height="140%">
      <feDropShadow dx="0" dy="1" stdDeviation="0.5" flood-opacity="0.2"/>
    </filter>
  </defs>
  
  <!-- Shopping Bag Icon with Modern Design -->
  <g transform="translate(5, 5)" filter="url(#shadow)">
    <!-- Bag Body -->
    <path d="M4,7 L4,20 C4,21.1 4.9,22 6,22 L20,22 C21.1,22 22,21.1 22,20 L22,7" 
          stroke="url(#primaryGradient)" stroke-width="2" stroke-linecap="round" fill="none"/>
    
    <!-- Bag Top -->
    <path d="M2,7 L24,7" stroke="url(#primaryGradient)" stroke-width="2" stroke-linecap="round"/>
    
    <!-- Bag Handles -->
    <path d="M8,7 C8,4.2 10.2,2 13,2 C15.8,2 18,4.2 18,7" 
          stroke="url(#primaryGradient)" stroke-width="2" stroke-linecap="round" fill="none"/>
    
    <!-- Shopping Elements -->
    <circle cx="10" cy="12" r="1.5" fill="url(#primaryGradient)"/>
    <circle cx="16" cy="12" r="1.5" fill="url(#primaryGradient)"/>
    <path d="M10,16 L16,16" stroke="url(#primaryGradient)" stroke-width="2" stroke-linecap="round"/>
  </g>
  
  <!-- Text "Market" with custom typography -->
  <g filter="url(#shadow)">
    <!-- M -->
    <path d="M36,10 L39,18 L42,10 L45,10 L45,24 L42,24 L42,16 L40,22 L38,22 L36,16 L36,24 L33,24 L33,10 Z" 
          fill="#2D3748"/>
    <!-- a -->
    <path d="M47,16 C47,14.3 48.3,13 50,13 C51.7,13 53,14.3 53,16 L53,24 L50,24 L50,23 C49.4,23.6 48.7,24 47.8,24 C46.3,24 45,22.7 45,21.2 C45,19.7 46.3,18.4 47.8,18.4 C48.7,18.4 49.4,18.8 50,19.4 L50,16 C50,15.4 49.6,15 49,15 C48.4,15 48,15.4 48,16 L47,16 Z M48,21.2 C48,21.6 48.4,22 48.8,22 C49.5,22 50,21.5 50,20.8 C50,20.1 49.5,19.6 48.8,19.6 C48.4,19.6 48,20 48,20.4 L48,21.2 Z" 
          fill="#2D3748"/>
    <!-- r -->
    <path d="M54,24 L54,14 L57,14 L57,15 C57.6,14.4 58.3,14 59.2,14 C60.7,14 62,15.3 62,16.8 L62,24 L59,24 L59,17.8 C59,17.4 58.6,17 58.2,17 C57.5,17 57,17.5 57,18.2 L57,24 L54,24 Z" 
          fill="#2D3748"/>
    <!-- k -->
    <path d="M63,24 L63,10 L66,10 L66,16 L68,14 L72,14 L69,17 L72,24 L69,24 L67,19 L66,20 L66,24 L63,24 Z" 
          fill="#2D3748"/>
    <!-- e -->
    <path d="M73,19 C73,16.2 75.2,14 78,14 C80.8,14 83,16.2 83,19 C83,19.3 83,19.7 82.9,20 L76,20 C76.3,20.6 76.9,21 77.6,21 C78.1,21 78.5,20.8 78.8,20.4 L82.4,20.4 C81.6,22.4 79.9,24 78,24 C75.2,24 73,21.8 73,19 Z M76,18 L80,18 C79.7,17.4 79.1,17 78.4,17 C77.7,17 77.1,17.4 76.8,18 L76,18 Z" 
          fill="#2D3748"/>
    <!-- t -->
    <path d="M84,24 L84,14 L87,14 L87,24 L84,24 Z M84,13 L84,10 L87,10 L87,13 L84,13 Z" 
          fill="#2D3748"/>
  </g>
  
  <!-- Text "Place" with gradient -->
  <g filter="url(#shadow)">
    <!-- P -->
    <path d="M36,26 L42,26 C43.1,26 44,26.9 44,28 L44,30 C44,31.1 43.1,32 42,32 L39,32 L39,36 L36,36 L36,26 Z M39,29 L41,29 L41,29 C41,29 41,29 41,29 L41,29 C41,29 41,29 41,29 L39,29 L39,29 Z" 
          fill="url(#primaryGradient)"/>
    <!-- l -->
    <path d="M45,36 L45,26 L48,26 L48,36 L45,36 Z" 
          fill="url(#primaryGradient)"/>
    <!-- a -->
    <path d="M49,32 C49,30.3 50.3,29 52,29 C53.7,29 55,30.3 55,32 L55,36 L52,36 L52,35 C51.4,35.6 50.7,36 49.8,36 C48.3,36 47,34.7 47,33.2 C47,31.7 48.3,30.4 49.8,30.4 C50.7,30.4 51.4,30.8 52,31.4 L52,32 C52,31.4 51.6,31 51,31 C50.4,31 50,31.4 50,32 L49,32 Z M50,33.2 C50,33.6 50.4,34 50.8,34 C51.5,34 52,33.5 52,32.8 C52,32.1 51.5,31.6 50.8,31.6 C50.4,31.6 50,32 50,32.4 L50,33.2 Z" 
          fill="url(#primaryGradient)"/>
    <!-- c -->
    <path d="M56,32.5 C56,30.6 57.6,29 59.5,29 C61.4,29 63,30.6 63,32.5 C63,34.4 61.4,36 59.5,36 C57.6,36 56,34.4 56,32.5 Z M59,32.5 C59,31.7 59.7,31 60.5,31 C61.3,31 62,31.7 62,32.5 C62,33.3 61.3,34 60.5,34 C59.7,34 59,33.3 59,32.5 Z" 
          fill="url(#primaryGradient)"/>
    <!-- e -->
    <path d="M64,32.5 C64,30.6 65.6,29 67.5,29 C69.4,29 71,30.6 71,32.5 C71,32.8 71,33.2 70.9,33.5 L67,33.5 C67.3,34.1 67.9,34.5 68.6,34.5 C69.1,34.5 69.5,34.3 69.8,33.9 L70.4,33.9 C69.6,35.2 68.6,36 67.5,36 C65.6,36 64,34.4 64,32.5 Z M67,32 L68,32 C67.7,31.4 67.1,31 66.4,31 C65.7,31 65.1,31.4 64.8,32 L67,32 Z" 
          fill="url(#primaryGradient)"/>
  </g>
  
  <!-- Decorative Elements -->
  <circle cx="110" cy="12" r="3" fill="url(#secondaryGradient)" opacity="0.8"/>
  <circle cx="110" cy="24" r="2" fill="url(#secondaryGradient)" opacity="0.6"/>
  <circle cx="102" cy="18" r="1.5" fill="url(#secondaryGradient)" opacity="0.4"/>
  
  <!-- Connecting Lines -->
  <path d="M95,12 L107,12" stroke="url(#secondaryGradient)" stroke-width="0.5" stroke-dasharray="2,2" opacity="0.5"/>
  <path d="M95,24 L107,24" stroke="url(#secondaryGradient)" stroke-width="0.5" stroke-dasharray="2,2" opacity="0.5"/>
</svg>